<?xml version="1.0" encoding="UTF-8" standalone="no"?>
<svg width="341px" height="48px" viewBox="0 0 341 48" version="1.1" xmlns="http://www.w3.org/2000/svg" xmlns:xlink="http://www.w3.org/1999/xlink">
    <!-- Generator: Sketch 3.8.1 (29687) - http://www.bohemiancoding.com/sketch -->
    <title>Slice 1</title>
    <desc>Created with Sketch.</desc>
    <defs>
        <polygon id="path-1" points="0.045 18.94 20.955 18.94 20.955 0.327557229 0.045 0.327557229 0.045 18.94"></polygon>
    </defs>
    <g id="Page-1" stroke="none" stroke-width="1" fill="none" fill-rule="evenodd">
        <g id="ACH_logo_rev_words">
            <path d="M15.972,3.062 L11.689,3.062 C11.242,3.062 10.96,3.124 10.843,3.245 C10.727,3.367 10.668,3.668 10.668,4.146 L10.668,19.106 L10.684,19.701 C10.734,20.892 11.4,21.6 12.68,21.823 C13.035,21.883 13.213,21.997 13.213,22.166 C13.213,22.385 13.071,22.493 12.786,22.493 C12.664,22.493 12.414,22.463 12.038,22.402 C11.844,22.372 11.386,22.357 10.663,22.357 L9.548,22.341 L8.357,22.357 C7.929,22.357 7.568,22.372 7.272,22.402 C6.692,22.463 6.351,22.493 6.25,22.493 C5.944,22.493 5.791,22.385 5.791,22.166 C5.791,22.008 5.959,21.908 6.294,21.869 C7.077,21.768 7.605,21.551 7.879,21.22 C8.153,20.89 8.291,20.297 8.291,19.441 L8.291,4.314 L8.275,3.917 C8.275,3.551 8.222,3.317 8.115,3.215 C8.009,3.113 7.762,3.062 7.376,3.062 L3.337,3.062 C2.515,3.062 1.917,3.228 1.547,3.558 C1.176,3.888 0.889,4.51 0.686,5.425 C0.594,5.821 0.457,6.014 0.274,6.004 C0.091,5.994 0,5.857 0,5.594 C0,5.381 0.061,4.991 0.183,4.424 C0.335,3.695 0.412,3.093 0.412,2.616 C0.412,2.15 0.465,1.845 0.571,1.697 C0.678,1.551 0.905,1.478 1.25,1.478 L17.663,1.478 C18.222,1.478 18.56,1.538 18.677,1.659 C18.794,1.781 18.852,2.141 18.852,2.737 C18.852,3.335 18.877,3.77 18.928,4.043 C18.979,4.387 19.01,4.635 19.02,4.786 C19.03,5.09 18.923,5.252 18.7,5.272 C18.517,5.282 18.395,5.125 18.334,4.8 C18.202,4.078 17.988,3.608 17.694,3.39 C17.399,3.172 16.825,3.062 15.972,3.062" id="Fill-1" fill="#FFFFFF"></path>
            <path d="M25.805,12.048 L33.897,12.048 C34.3,12.048 34.556,12.012 34.665,11.938 C34.775,11.865 34.83,11.699 34.83,11.442 L34.83,6.749 C34.83,5.805 34.709,5.135 34.466,4.74 C34.224,4.346 33.778,4.075 33.129,3.928 C32.855,3.874 32.722,3.768 32.731,3.606 C32.74,3.455 32.855,3.379 33.074,3.379 C33.267,3.379 33.577,3.402 34.007,3.448 C34.61,3.512 35.251,3.544 35.927,3.544 C36.906,3.544 37.591,3.517 37.985,3.462 C38.231,3.425 38.401,3.407 38.492,3.407 C38.712,3.407 38.821,3.496 38.821,3.674 C38.821,3.814 38.712,3.909 38.492,3.955 L37.93,4.079 C37.646,4.134 37.409,4.337 37.217,4.689 C37.024,5.041 36.929,5.446 36.929,5.903 L36.929,19.167 C36.929,20.146 37.066,20.822 37.34,21.196 C37.614,21.571 38.14,21.8 38.917,21.883 C39.201,21.918 39.347,22.008 39.356,22.15 C39.374,22.365 39.247,22.473 38.972,22.473 C38.789,22.473 38.552,22.449 38.259,22.403 C38.04,22.367 37.582,22.349 36.887,22.349 L35.873,22.335 L34.844,22.362 C34.679,22.362 34.46,22.376 34.186,22.403 C33.618,22.449 33.303,22.473 33.239,22.473 C33.01,22.481 32.9,22.393 32.91,22.204 C32.919,22.044 33.074,21.941 33.376,21.897 C34.336,21.731 34.816,20.948 34.816,19.547 L34.83,19.012 L34.83,13.97 C34.83,13.539 34.789,13.287 34.706,13.214 C34.624,13.141 34.35,13.104 33.884,13.104 L25.805,13.104 C25.284,13.104 24.959,13.157 24.831,13.262 C24.703,13.367 24.639,13.635 24.639,14.064 L24.639,19.098 C24.639,20.049 24.79,20.717 25.091,21.101 C25.393,21.484 25.956,21.723 26.779,21.814 C27.117,21.85 27.291,21.966 27.3,22.163 C27.309,22.351 27.176,22.445 26.902,22.445 C26.783,22.445 26.559,22.424 26.23,22.383 C25.983,22.341 25.435,22.32 24.584,22.32 L23.432,22.308 L22.527,22.338 C22.298,22.338 22.01,22.354 21.663,22.384 C21.187,22.425 20.899,22.445 20.798,22.445 C20.57,22.445 20.456,22.36 20.456,22.19 C20.456,22.029 20.574,21.923 20.812,21.869 L21.498,21.704 C21.9,21.612 22.174,21.31 22.321,20.797 C22.467,20.283 22.54,19.385 22.54,18.102 L22.54,6.307 C22.54,5.509 22.39,4.932 22.088,4.574 C21.786,4.217 21.246,3.979 20.469,3.859 C20.204,3.824 20.071,3.726 20.071,3.565 C20.071,3.377 20.19,3.288 20.428,3.297 C20.602,3.307 20.876,3.334 21.251,3.379 C21.964,3.462 22.801,3.503 23.761,3.503 C24.41,3.503 25.018,3.467 25.585,3.394 C25.832,3.356 26.024,3.338 26.162,3.338 C26.426,3.338 26.559,3.432 26.559,3.619 C26.559,3.763 26.435,3.865 26.189,3.928 C25.576,4.084 25.165,4.307 24.955,4.596 C24.744,4.885 24.639,5.368 24.639,6.048 L24.639,10.961 C24.639,11.483 24.691,11.796 24.797,11.896 C24.902,11.998 25.238,12.048 25.805,12.048" id="Fill-2" fill="#FFFFFF"></path>
            <path d="M46.132,5.702 L46.132,11.235 C46.132,11.658 46.171,11.912 46.248,12 C46.326,12.087 46.561,12.13 46.955,12.13 L49.067,12.13 C50.027,12.13 50.786,12.075 51.344,11.966 C51.838,11.865 52.158,11.732 52.304,11.568 C52.451,11.403 52.583,11.02 52.702,10.416 C52.749,10.188 52.866,10.077 53.053,10.087 C53.23,10.096 53.319,10.219 53.319,10.456 C53.319,10.52 53.314,10.62 53.304,10.757 C53.223,11.642 53.182,12.449 53.182,13.179 C53.182,13.735 53.209,14.287 53.265,14.834 C53.283,15.017 53.292,15.149 53.292,15.231 C53.292,15.459 53.203,15.573 53.025,15.573 C52.829,15.573 52.712,15.473 52.675,15.271 L52.593,14.888 C52.483,14.274 52.264,13.858 51.936,13.639 C51.607,13.42 51.05,13.31 50.266,13.31 L47.241,13.31 C46.793,13.31 46.495,13.355 46.344,13.447 C46.193,13.539 46.118,13.723 46.118,13.997 L46.132,14.45 L46.132,19.507 C46.132,20.285 46.271,20.771 46.55,20.963 C46.828,21.155 47.533,21.252 48.666,21.252 C52.254,21.252 54.56,20.442 55.582,18.824 C55.686,18.668 55.789,18.586 55.892,18.577 C56.061,18.568 56.145,18.686 56.145,18.933 C56.145,19.524 55.811,20.231 55.144,21.051 C54.339,22.035 53.324,22.527 52.099,22.527 C51.833,22.527 51.477,22.509 51.029,22.473 C49.282,22.308 47.837,22.226 46.694,22.226 C45.094,22.226 43.965,22.28 43.307,22.39 C42.959,22.454 42.721,22.486 42.593,22.486 C42.3,22.486 42.154,22.388 42.154,22.19 C42.154,22.039 42.273,21.932 42.511,21.869 L43.032,21.718 C43.69,21.535 44.019,20.894 44.019,19.794 L44.034,18.901 L44.034,7.294 C44.034,5.984 43.89,5.103 43.602,4.649 C43.313,4.196 42.753,3.969 41.921,3.969 C41.656,3.969 41.523,3.885 41.523,3.714 C41.523,3.464 41.729,3.338 42.141,3.338 C42.369,3.338 42.676,3.361 43.06,3.407 C44.367,3.553 45.94,3.626 47.778,3.626 C48.894,3.626 49.881,3.608 50.741,3.571 L52.688,3.476 C53.228,3.457 53.557,3.438 53.676,3.421 C53.923,3.384 54.105,3.365 54.225,3.365 C54.526,3.365 54.677,3.498 54.677,3.762 C54.677,3.844 54.664,3.949 54.636,4.076 C54.608,4.204 54.572,4.568 54.526,5.17 L54.472,5.976 C54.425,6.505 54.378,6.835 54.331,6.967 C54.285,7.099 54.182,7.17 54.024,7.179 C53.847,7.188 53.758,7.051 53.758,6.768 L53.758,6.411 C53.758,6.118 53.703,5.839 53.594,5.574 C53.42,5.162 53.069,4.888 52.54,4.751 C52.01,4.614 51.038,4.545 49.623,4.545 L47.474,4.545 C46.908,4.545 46.542,4.616 46.378,4.759 C46.214,4.901 46.132,5.215 46.132,5.702" id="Fill-3" fill="#FFFFFF"></path>
            <path d="M77.398,11.871 L75.005,5.836 L74.883,5.516 C74.761,5.191 74.629,5.023 74.487,5.013 C74.415,5.003 74.335,5.1 74.243,5.303 L71.271,11.901 C71.139,12.187 71.073,12.374 71.073,12.466 C71.073,12.729 71.307,12.862 71.774,12.862 L72.186,12.877 L76.788,12.877 C77.296,12.877 77.55,12.75 77.55,12.496 C77.55,12.425 77.524,12.309 77.474,12.146 L77.398,11.871 L77.398,11.871 Z M77.215,14.325 L71.698,14.325 C70.946,14.325 70.478,14.386 70.296,14.508 C70.113,14.631 69.869,15.038 69.564,15.729 L68.564,17.975 C68.113,19.003 67.888,19.767 67.888,20.266 C67.888,20.744 68.007,21.09 68.246,21.304 C68.484,21.518 68.955,21.701 69.656,21.853 C69.96,21.913 70.118,22.032 70.128,22.211 C70.138,22.379 69.997,22.463 69.703,22.463 C69.591,22.463 69.418,22.457 69.186,22.446 L67.726,22.36 C67.24,22.338 66.677,22.326 66.039,22.326 C65.745,22.326 65.517,22.333 65.355,22.348 C64.838,22.404 64.554,22.433 64.503,22.433 C64.23,22.433 64.093,22.339 64.093,22.151 C64.093,21.984 64.18,21.875 64.352,21.823 L64.916,21.655 C65.119,21.594 65.394,21.348 65.739,20.916 C66.085,20.483 66.369,20.033 66.592,19.565 L67.034,18.56 L74.868,1.157 C75,0.853 75.147,0.7 75.31,0.7 C75.472,0.7 75.609,0.848 75.721,1.143 L82.274,17.932 L82.61,18.756 C83.087,19.986 83.483,20.753 83.799,21.053 C84.113,21.353 84.753,21.589 85.719,21.762 C86.034,21.821 86.186,21.945 86.176,22.134 C86.166,22.303 86.023,22.387 85.749,22.387 C85.658,22.387 85.465,22.377 85.17,22.357 C84.642,22.306 83.702,22.28 82.351,22.28 C80.938,22.28 80.055,22.311 79.699,22.372 C79.486,22.412 79.328,22.433 79.227,22.433 C78.962,22.433 78.83,22.328 78.83,22.12 C78.83,21.962 78.957,21.857 79.211,21.808 L79.684,21.701 C80.192,21.6 80.446,21.253 80.446,20.662 C80.446,20.123 80.136,19.049 79.516,17.44 L78.754,15.425 C78.54,14.864 78.373,14.541 78.251,14.455 C78.129,14.368 77.784,14.325 77.215,14.325 L77.215,14.325 Z" id="Fill-4" fill="#FFFFFF"></path>
            <path d="M103.723,8.468 C102.944,9.829 102.426,10.774 102.17,11.305 L100.947,13.922 L99.544,16.799 C99.471,16.964 99.086,17.822 98.39,19.375 C98.105,20.015 97.858,20.54 97.647,20.951 C97.528,21.198 97.446,21.371 97.4,21.472 C97.219,21.901 97.025,22.115 96.817,22.115 C96.6,22.115 96.392,21.892 96.192,21.444 C96.156,21.362 96.028,21.111 95.808,20.69 L95.533,20.115 L90.377,8.989 L90.062,15.778 C90.035,16.337 90.021,17.452 90.021,19.126 C90.021,20.735 90.588,21.627 91.722,21.8 C92.279,21.89 92.558,22.024 92.558,22.204 C92.558,22.41 92.426,22.514 92.162,22.514 C91.988,22.514 91.819,22.504 91.655,22.486 C90.633,22.395 89.844,22.349 89.288,22.349 C88.622,22.349 87.983,22.39 87.372,22.473 C87.189,22.5 87.048,22.514 86.948,22.514 C86.674,22.514 86.537,22.415 86.537,22.219 C86.537,22.066 86.646,21.969 86.866,21.924 C87.534,21.768 88,21.457 88.265,20.99 C88.53,20.523 88.69,19.727 88.745,18.602 L88.938,14.621 C89.074,11.738 89.143,9.917 89.143,9.158 C89.143,7.529 88.928,6.323 88.498,5.541 C88.068,4.759 87.351,4.275 86.345,4.093 C86.071,4.048 85.934,3.937 85.934,3.757 C85.934,3.561 86.048,3.462 86.276,3.462 C86.358,3.462 86.509,3.471 86.729,3.489 C86.856,3.508 87.167,3.517 87.661,3.517 C88.41,3.517 88.885,3.508 89.086,3.489 C89.296,3.462 89.465,3.448 89.593,3.448 C89.986,3.448 90.315,3.736 90.581,4.312 L90.731,4.628 L96.448,16.958 L97.147,18.371 C97.248,18.609 97.32,18.728 97.366,18.728 C97.421,18.728 97.49,18.641 97.572,18.467 L97.736,18.097 L97.86,17.821 L104.301,4.011 C104.438,3.718 104.541,3.537 104.609,3.469 C104.678,3.4 104.799,3.365 104.973,3.365 C105.045,3.365 105.247,3.384 105.576,3.421 C105.694,3.43 105.845,3.435 106.028,3.435 C106.604,3.435 107.066,3.416 107.413,3.379 C107.578,3.37 107.71,3.361 107.811,3.352 C107.994,3.343 108.085,3.433 108.085,3.62 C108.085,3.79 107.994,3.897 107.811,3.941 L107.221,4.093 C106.754,4.203 106.428,4.489 106.24,4.951 C106.053,5.414 105.959,6.172 105.959,7.225 L106.042,10.535 L106.302,17.995 L106.371,19.726 C106.371,20.422 106.499,20.921 106.754,21.224 C107.01,21.525 107.477,21.727 108.154,21.828 C108.638,21.899 108.88,22.021 108.88,22.19 C108.88,22.369 108.712,22.459 108.374,22.459 C108.274,22.459 108.16,22.454 108.032,22.445 L106.964,22.335 C106.608,22.299 106.225,22.28 105.814,22.28 C105.532,22.28 105.084,22.301 104.474,22.341 C103.524,22.392 102.977,22.417 102.831,22.417 C102.566,22.417 102.434,22.337 102.434,22.177 C102.434,22.034 102.548,21.932 102.777,21.869 C103.316,21.723 103.677,21.484 103.86,21.155 C104.043,20.825 104.135,20.249 104.135,19.425 L104.08,17.186 L103.723,8.468" id="Fill-5" fill="#FFFFFF"></path>
            <path d="M115.3,5.702 L115.3,11.235 C115.3,11.658 115.339,11.912 115.417,12 C115.494,12.087 115.729,12.13 116.123,12.13 L118.235,12.13 C119.195,12.13 119.954,12.075 120.512,11.966 C121.006,11.865 121.326,11.732 121.472,11.568 C121.619,11.403 121.751,11.02 121.87,10.416 C121.917,10.188 122.034,10.077 122.221,10.087 C122.398,10.096 122.487,10.219 122.487,10.456 C122.487,10.52 122.482,10.62 122.472,10.757 C122.391,11.642 122.35,12.449 122.35,13.179 C122.35,13.735 122.377,14.287 122.433,14.834 C122.451,15.017 122.46,15.149 122.46,15.231 C122.46,15.459 122.371,15.573 122.193,15.573 C121.997,15.573 121.88,15.473 121.843,15.271 L121.761,14.888 C121.651,14.274 121.432,13.858 121.104,13.639 C120.775,13.42 120.218,13.31 119.434,13.31 L116.409,13.31 C115.961,13.31 115.663,13.355 115.512,13.447 C115.361,13.539 115.286,13.723 115.286,13.997 L115.3,14.45 L115.3,19.507 C115.3,20.285 115.439,20.771 115.718,20.963 C115.996,21.155 116.701,21.252 117.834,21.252 C121.422,21.252 123.728,20.442 124.75,18.824 C124.854,18.668 124.957,18.586 125.06,18.577 C125.229,18.568 125.313,18.686 125.313,18.933 C125.313,19.524 124.979,20.231 124.312,21.051 C123.507,22.035 122.492,22.527 121.267,22.527 C121.001,22.527 120.645,22.509 120.197,22.473 C118.45,22.308 117.005,22.226 115.862,22.226 C114.262,22.226 113.133,22.28 112.475,22.39 C112.127,22.454 111.889,22.486 111.761,22.486 C111.468,22.486 111.322,22.388 111.322,22.19 C111.322,22.039 111.441,21.932 111.679,21.869 L112.2,21.718 C112.858,21.535 113.188,20.894 113.188,19.794 L113.202,18.901 L113.202,7.294 C113.202,5.984 113.058,5.103 112.77,4.649 C112.481,4.196 111.921,3.969 111.089,3.969 C110.824,3.969 110.691,3.885 110.691,3.714 C110.691,3.464 110.897,3.338 111.309,3.338 C111.537,3.338 111.844,3.361 112.228,3.407 C113.535,3.553 115.108,3.626 116.946,3.626 C118.062,3.626 119.049,3.608 119.909,3.571 L121.856,3.476 C122.396,3.457 122.725,3.438 122.844,3.421 C123.091,3.384 123.273,3.365 123.393,3.365 C123.694,3.365 123.845,3.498 123.845,3.762 C123.845,3.844 123.832,3.949 123.804,4.076 C123.776,4.204 123.74,4.568 123.694,5.17 L123.64,5.976 C123.593,6.505 123.546,6.835 123.5,6.967 C123.453,7.099 123.35,7.17 123.192,7.179 C123.015,7.188 122.926,7.051 122.926,6.768 L122.926,6.411 C122.926,6.118 122.871,5.839 122.762,5.574 C122.588,5.162 122.237,4.888 121.708,4.751 C121.178,4.614 120.206,4.545 118.792,4.545 L116.642,4.545 C116.076,4.545 115.71,4.616 115.546,4.759 C115.382,4.901 115.3,5.215 115.3,5.702" id="Fill-6" fill="#FFFFFF"></path>
            <path d="M132.694,12.583 L134.248,12.583 C135.448,12.583 136.392,12.253 137.079,11.592 C137.767,10.932 138.11,10.028 138.11,8.881 C138.11,7.551 137.643,6.457 136.708,5.599 C135.773,4.741 134.582,4.312 133.134,4.312 C132.593,4.312 132.22,4.401 132.014,4.58 C131.808,4.76 131.705,5.083 131.705,5.551 L131.718,6.005 L131.718,11.592 C131.718,12.023 131.776,12.297 131.89,12.411 C132.004,12.525 132.272,12.583 132.694,12.583 L132.694,12.583 Z M136.725,12.881 L140.511,18.462 L140.949,19.119 C142.12,20.833 143.199,21.723 144.187,21.786 L144.625,21.814 C144.79,21.824 144.868,21.889 144.858,22.01 C144.849,22.149 144.646,22.275 144.248,22.387 C143.851,22.499 143.4,22.555 142.897,22.555 C142.074,22.555 141.335,22.328 140.682,21.876 C140.028,21.423 139.363,20.685 138.686,19.66 L135.271,14.448 L135.079,14.146 C134.859,13.771 134.503,13.584 134.009,13.584 L132.185,13.584 L131.883,13.64 C131.773,13.703 131.718,13.851 131.718,14.08 L131.718,18.373 L131.732,18.924 C131.732,19.713 131.771,20.252 131.849,20.541 C131.926,20.83 132.111,21.089 132.404,21.318 C132.797,21.63 133.406,21.827 134.229,21.91 C134.558,21.945 134.727,22.049 134.736,22.218 C134.754,22.396 134.604,22.486 134.283,22.486 C134.155,22.486 133.886,22.466 133.474,22.425 C133.099,22.385 132.519,22.364 131.732,22.364 L130.416,22.349 L129.702,22.362 C129.391,22.362 129.017,22.386 128.578,22.431 C128.221,22.468 127.974,22.486 127.837,22.486 C127.608,22.486 127.494,22.393 127.494,22.205 C127.494,22.071 127.608,21.982 127.837,21.937 C128.568,21.8 129.048,21.468 129.277,20.941 C129.505,20.415 129.62,19.378 129.62,17.83 L129.62,7.967 L129.592,6.538 C129.592,5.109 129.094,4.312 128.097,4.147 L127.453,4.052 C127.16,3.998 127.014,3.891 127.014,3.729 C127.014,3.542 127.169,3.448 127.48,3.448 C127.553,3.448 127.873,3.467 128.44,3.503 C128.77,3.53 129.176,3.544 129.661,3.544 C130.082,3.544 130.799,3.512 131.814,3.448 C132.546,3.402 133.19,3.379 133.749,3.379 C135.852,3.379 137.438,3.775 138.508,4.567 C139.578,5.358 140.113,6.537 140.113,8.103 C140.113,10.162 138.983,11.755 136.725,12.881 L136.725,12.881 Z" id="Fill-7" fill="#FFFFFF"></path>
            <path d="M150.153,7.558 L150.153,17.841 C150.153,19.124 150.23,19.972 150.386,20.384 C150.569,20.852 150.795,21.182 151.065,21.374 C151.335,21.566 151.758,21.704 152.334,21.786 C152.791,21.85 153.02,21.961 153.02,22.122 C153.02,22.337 152.878,22.445 152.595,22.445 C152.458,22.445 152.284,22.43 152.073,22.399 C151.79,22.358 151.305,22.338 150.62,22.338 L148.63,22.308 L147.012,22.403 C146.747,22.431 146.527,22.445 146.354,22.445 C146.107,22.445 145.983,22.351 145.983,22.163 C145.983,22.003 146.125,21.899 146.409,21.855 C147.104,21.736 147.551,21.496 147.753,21.134 C147.954,20.773 148.055,20.01 148.055,18.847 L148.055,7.088 C148.055,5.952 147.924,5.188 147.664,4.793 C147.403,4.399 146.848,4.134 145.997,3.997 C145.713,3.943 145.567,3.836 145.558,3.675 C145.549,3.478 145.682,3.379 145.956,3.379 C146.029,3.379 146.111,3.385 146.203,3.395 C146.87,3.476 147.757,3.517 148.864,3.517 C149.541,3.517 150.121,3.501 150.605,3.471 L151.525,3.395 C151.698,3.385 151.813,3.379 151.868,3.379 C152.114,3.379 152.238,3.465 152.238,3.635 C152.238,3.796 152.119,3.916 151.881,3.997 L151.168,4.271 C150.491,4.528 150.153,5.623 150.153,7.558" id="Fill-8" fill="#FFFFFF"></path>
            <path d="M171.893,5.148 L172.332,8.44 L172.373,8.783 L172.332,8.921 C172.286,9.003 172.218,9.049 172.126,9.058 C172.017,9.067 171.852,8.876 171.633,8.483 C169.921,5.492 167.601,3.997 164.672,3.997 C162.338,3.997 160.498,4.714 159.153,6.146 C157.807,7.58 157.135,9.539 157.135,12.021 C157.135,14.88 157.883,17.215 159.379,19.027 C160.875,20.839 162.8,21.745 165.152,21.745 C166.525,21.745 167.875,21.379 169.202,20.644 C170.529,19.911 171.449,19.022 171.962,17.976 C172.2,17.489 172.382,17.242 172.51,17.232 C172.657,17.224 172.73,17.311 172.73,17.495 L172.716,17.646 L172.661,17.95 L172.346,19.632 L172.291,19.88 C172.254,20.118 172.04,20.364 171.646,20.621 C169.534,21.965 167.207,22.637 164.665,22.637 C161.72,22.637 159.348,21.765 157.546,20.019 C155.745,18.273 154.844,15.976 154.844,13.124 C154.844,10.273 155.776,7.904 157.642,6.018 C159.507,4.131 161.848,3.187 164.664,3.187 C166.593,3.187 168.367,3.622 169.985,4.49 L170.534,4.778 L170.753,4.874 L170.987,4.957 C171.032,4.957 171.101,4.92 171.192,4.847 C171.394,4.701 171.531,4.628 171.605,4.628 C171.751,4.628 171.847,4.802 171.893,5.148" id="Fill-9" fill="#FFFFFF"></path>
            <path d="M185.02,12.912 L182.866,7.48 L182.757,7.192 C182.647,6.9 182.528,6.749 182.4,6.74 C182.336,6.73 182.263,6.817 182.181,7 L179.506,12.939 C179.387,13.195 179.328,13.365 179.328,13.447 C179.328,13.685 179.538,13.804 179.958,13.804 L180.329,13.817 L184.471,13.817 C184.928,13.817 185.157,13.703 185.157,13.475 C185.157,13.41 185.134,13.306 185.088,13.159 L185.02,12.912 L185.02,12.912 Z M184.855,15.12 L179.89,15.12 C179.213,15.12 178.792,15.176 178.628,15.285 C178.463,15.396 178.244,15.762 177.97,16.385 L177.07,18.405 C176.664,19.331 176.461,20.018 176.461,20.467 C176.461,20.897 176.568,21.209 176.783,21.401 C176.998,21.594 177.421,21.759 178.052,21.897 C178.326,21.95 178.468,22.057 178.477,22.218 C178.486,22.369 178.359,22.445 178.094,22.445 C177.994,22.445 177.838,22.44 177.629,22.43 L176.315,22.352 C175.877,22.332 175.372,22.321 174.797,22.321 C174.532,22.321 174.327,22.328 174.181,22.341 C173.716,22.392 173.461,22.417 173.415,22.417 C173.169,22.417 173.045,22.333 173.045,22.164 C173.045,22.014 173.124,21.916 173.279,21.869 L173.786,21.718 C173.969,21.663 174.216,21.441 174.527,21.052 C174.838,20.663 175.094,20.258 175.295,19.837 L175.693,18.932 L182.743,3.27 C182.862,2.995 182.994,2.858 183.141,2.858 C183.287,2.858 183.41,2.991 183.511,3.257 L189.409,18.366 L189.711,19.108 C190.141,20.216 190.497,20.905 190.781,21.175 C191.064,21.445 191.64,21.658 192.509,21.814 C192.792,21.867 192.929,21.98 192.92,22.148 C192.911,22.301 192.783,22.376 192.536,22.376 C192.454,22.376 192.28,22.367 192.015,22.349 C191.54,22.303 190.693,22.28 189.478,22.28 C188.207,22.28 187.411,22.308 187.091,22.362 C186.899,22.399 186.757,22.417 186.666,22.417 C186.428,22.417 186.309,22.323 186.309,22.137 C186.309,21.993 186.423,21.899 186.652,21.855 L187.077,21.759 C187.534,21.667 187.763,21.355 187.763,20.824 C187.763,20.339 187.484,19.372 186.926,17.924 L186.241,16.11 C186.048,15.606 185.897,15.315 185.788,15.237 C185.678,15.159 185.367,15.12 184.855,15.12 L184.855,15.12 Z" id="Fill-10" fill="#FFFFFF"></path>
            <path d="M210.134,8.811 L210.134,20.305 C210.134,21.339 210.111,21.967 210.065,22.191 C210.02,22.415 209.892,22.523 209.682,22.514 C209.544,22.504 209.439,22.463 209.366,22.39 L209.064,22.033 L197.501,8.811 L197.364,8.66 C197.31,8.605 197.246,8.578 197.172,8.578 C196.999,8.578 196.912,8.784 196.912,9.195 L196.912,18.505 L196.898,19.082 L196.939,20.057 C197.003,20.661 197.159,21.077 197.405,21.306 C197.652,21.535 198.137,21.704 198.859,21.814 C199.161,21.85 199.312,21.966 199.312,22.163 C199.312,22.342 199.216,22.431 199.024,22.431 C198.896,22.431 198.759,22.422 198.612,22.403 C198.512,22.386 198.114,22.357 197.419,22.321 L196.02,22.253 L195.362,22.277 C195.005,22.277 194.667,22.299 194.347,22.34 C194.109,22.373 193.94,22.39 193.839,22.39 C193.602,22.39 193.474,22.305 193.455,22.136 C193.446,22.001 193.574,21.89 193.839,21.8 C194.607,21.535 195.126,21.181 195.396,20.736 C195.666,20.293 195.801,19.576 195.801,18.588 L195.801,9.254 C195.801,7.671 195.549,6.424 195.046,5.514 C194.543,4.604 193.816,4.084 192.865,3.955 C192.619,3.92 192.495,3.817 192.495,3.647 C192.495,3.478 192.596,3.394 192.797,3.394 C192.842,3.394 192.916,3.397 193.016,3.407 L193.579,3.421 L194.498,3.448 L194.717,3.435 C194.937,3.425 195.105,3.421 195.225,3.421 C195.453,3.421 195.682,3.553 195.911,3.818 L208.529,18.11 C208.73,18.339 208.858,18.449 208.914,18.44 C209.005,18.431 209.055,18.344 209.064,18.179 L209.064,11.39 L209.078,9.538 L208.914,6.383 C208.822,5.606 208.596,5.055 208.234,4.73 C207.873,4.406 207.222,4.166 206.28,4.011 C206.015,3.966 205.882,3.854 205.882,3.675 C205.882,3.506 206.015,3.421 206.28,3.421 C206.398,3.421 206.591,3.434 206.856,3.458 C207.487,3.524 208.333,3.558 209.394,3.558 C209.96,3.558 210.413,3.53 210.751,3.476 C211.044,3.421 211.268,3.394 211.423,3.394 C211.661,3.394 211.789,3.489 211.808,3.681 C211.816,3.8 211.725,3.887 211.533,3.941 C210.975,4.079 210.607,4.308 210.429,4.628 C210.25,4.947 210.162,5.547 210.162,6.425 L210.162,7.905 L210.134,8.811" id="Fill-11" fill="#FFFFFF"></path>
            <path d="M241.148,3.245 L241.636,6.903 L241.682,7.284 L241.636,7.437 C241.585,7.527 241.509,7.579 241.408,7.589 C241.286,7.599 241.103,7.386 240.859,6.95 C238.957,3.627 236.379,1.965 233.125,1.965 C230.532,1.965 228.487,2.762 226.993,4.354 C225.498,5.947 224.75,8.123 224.75,10.882 C224.75,14.058 225.581,16.652 227.244,18.665 C228.907,20.679 231.045,21.686 233.659,21.686 C235.184,21.686 236.684,21.278 238.159,20.463 C239.633,19.648 240.655,18.659 241.225,17.497 C241.489,16.957 241.692,16.682 241.834,16.672 C241.997,16.662 242.078,16.759 242.078,16.963 L242.063,17.132 L242.002,17.469 L241.651,19.338 L241.59,19.613 C241.55,19.878 241.311,20.152 240.874,20.437 C238.527,21.93 235.941,22.677 233.117,22.677 C229.845,22.677 227.208,21.707 225.207,19.768 C223.206,17.828 222.205,15.275 222.205,12.107 C222.205,8.939 223.241,6.308 225.313,4.211 C227.386,2.114 229.987,1.065 233.116,1.065 C235.26,1.065 237.23,1.549 239.029,2.514 L239.638,2.834 L239.882,2.94 L240.141,3.032 C240.192,3.032 240.268,2.991 240.37,2.91 C240.594,2.748 240.747,2.666 240.828,2.666 C240.991,2.666 241.098,2.859 241.148,3.245" id="Fill-12" fill="#FFFFFF"></path>
            <path d="M253.31,4.079 C251.187,4.079 249.501,4.793 248.251,6.223 C247.002,7.651 246.378,9.575 246.378,11.995 C246.378,14.761 247.177,17.094 248.773,18.993 C250.371,20.892 252.332,21.842 254.656,21.842 C256.779,21.842 258.533,21.067 259.914,19.52 C261.296,17.973 261.986,16.012 261.986,13.638 C261.986,10.908 261.158,8.633 259.501,6.812 C257.845,4.989 255.781,4.079 253.31,4.079 L253.31,4.079 Z M254.197,3.187 C257.058,3.187 259.406,4.071 261.24,5.84 C263.072,7.607 263.99,9.872 263.99,12.631 C263.99,15.556 263.066,17.954 261.218,19.827 C259.371,21.7 257.007,22.637 254.126,22.637 C251.173,22.637 248.785,21.741 246.96,19.95 C245.136,18.159 244.224,15.812 244.224,12.905 C244.224,11.645 244.464,10.395 244.944,9.156 C245.424,7.918 246.071,6.884 246.885,6.052 C247.746,5.175 248.833,4.479 250.15,3.962 C251.466,3.445 252.816,3.187 254.197,3.187 L254.197,3.187 Z" id="Fill-13" fill="#FFFFFF"></path>
            <path d="M270.765,18.586 L270.779,19.067 C270.779,20.166 270.883,20.816 271.094,21.018 C271.305,21.22 271.992,21.32 273.155,21.32 C274.868,21.32 276.353,21.117 277.613,20.71 C278.872,20.303 279.675,19.766 280.023,19.098 C280.151,18.852 280.279,18.728 280.408,18.728 C280.553,18.728 280.622,18.819 280.613,19.001 C280.577,19.603 280.279,20.263 279.72,20.982 C278.933,21.976 277.657,22.473 275.89,22.473 C275.597,22.473 275.258,22.459 274.875,22.431 L273.391,22.321 C272.522,22.258 271.602,22.226 270.631,22.226 C269.505,22.226 268.563,22.28 267.803,22.39 C267.483,22.436 267.226,22.463 267.035,22.473 C266.805,22.481 266.691,22.401 266.691,22.232 C266.691,22.089 266.816,21.982 267.064,21.91 C267.7,21.718 268.125,21.437 268.341,21.065 C268.558,20.694 268.667,20.069 268.667,19.19 L268.68,18.558 L268.68,6.277 C268.68,5.059 268.186,4.35 267.199,4.147 L266.582,4.024 C266.362,3.979 266.252,3.89 266.252,3.756 C266.252,3.551 266.408,3.448 266.717,3.448 C266.927,3.448 267.214,3.467 267.58,3.503 C268.201,3.558 268.898,3.585 269.674,3.585 C270.513,3.585 271.276,3.563 271.96,3.517 C272.307,3.498 272.503,3.489 272.548,3.489 C272.768,3.489 272.877,3.557 272.877,3.69 C272.877,3.887 272.745,4.017 272.479,4.079 L272,4.188 C271.176,4.391 270.765,5.21 270.765,6.647 L270.765,18.586" id="Fill-14" fill="#FFFFFF"></path>
            <path d="M290.509,4.079 C288.386,4.079 286.7,4.793 285.451,6.223 C284.201,7.651 283.577,9.575 283.577,11.995 C283.577,14.761 284.375,17.094 285.972,18.993 C287.569,20.892 289.53,21.842 291.855,21.842 C293.978,21.842 295.731,21.067 297.113,19.52 C298.495,17.973 299.185,16.012 299.185,13.638 C299.185,10.908 298.357,8.633 296.701,6.812 C295.044,4.989 292.98,4.079 290.509,4.079 L290.509,4.079 Z M291.395,3.187 C294.256,3.187 296.605,4.071 298.438,5.84 C300.271,7.607 301.188,9.872 301.188,12.631 C301.188,15.556 300.264,17.954 298.417,19.827 C296.57,21.7 294.207,22.637 291.326,22.637 C288.373,22.637 285.984,21.741 284.16,19.95 C282.335,18.159 281.423,15.812 281.423,12.905 C281.423,11.645 281.664,10.395 282.143,9.156 C282.624,7.918 283.27,6.884 284.084,6.052 C284.944,5.175 286.032,4.479 287.348,3.962 C288.666,3.445 290.014,3.187 291.395,3.187 L291.395,3.187 Z" id="Fill-15" fill="#FFFFFF"></path>
            <path d="M320.103,8.811 L320.103,20.305 C320.103,21.339 320.08,21.967 320.035,22.191 C319.989,22.415 319.861,22.523 319.65,22.514 C319.513,22.504 319.408,22.463 319.334,22.39 L319.033,22.033 L307.47,8.811 L307.333,8.66 C307.278,8.605 307.214,8.578 307.141,8.578 C306.967,8.578 306.88,8.784 306.88,9.195 L306.88,18.505 L306.867,19.082 L306.908,20.057 C306.972,20.661 307.127,21.077 307.375,21.306 C307.622,21.535 308.106,21.704 308.829,21.814 C309.13,21.85 309.281,21.966 309.281,22.163 C309.281,22.342 309.185,22.431 308.993,22.431 C308.865,22.431 308.727,22.422 308.582,22.403 C308.481,22.386 308.083,22.357 307.388,22.321 L305.989,22.253 L305.331,22.277 C304.974,22.277 304.635,22.299 304.316,22.34 C304.078,22.373 303.909,22.39 303.808,22.39 C303.57,22.39 303.442,22.305 303.424,22.136 C303.415,22.001 303.542,21.89 303.808,21.8 C304.576,21.535 305.095,21.181 305.365,20.736 C305.634,20.293 305.769,19.576 305.769,18.588 L305.769,9.254 C305.769,7.671 305.518,6.424 305.015,5.514 C304.512,4.604 303.785,4.084 302.834,3.955 C302.587,3.92 302.463,3.817 302.463,3.647 C302.463,3.478 302.564,3.394 302.765,3.394 C302.811,3.394 302.884,3.397 302.985,3.407 L303.547,3.421 L304.466,3.448 L304.686,3.435 C304.906,3.425 305.075,3.421 305.194,3.421 C305.421,3.421 305.651,3.553 305.879,3.818 L318.499,18.11 C318.699,18.339 318.828,18.449 318.882,18.44 C318.973,18.431 319.024,18.344 319.033,18.179 L319.033,11.39 L319.046,9.538 L318.882,6.383 C318.791,5.606 318.564,5.055 318.204,4.73 C317.842,4.406 317.19,4.166 316.249,4.011 C315.983,3.966 315.851,3.854 315.851,3.675 C315.851,3.506 315.983,3.421 316.249,3.421 C316.368,3.421 316.559,3.434 316.825,3.458 C317.456,3.524 318.301,3.558 319.362,3.558 C319.929,3.558 320.381,3.53 320.72,3.476 C321.012,3.421 321.237,3.394 321.392,3.394 C321.629,3.394 321.758,3.489 321.776,3.681 C321.786,3.8 321.694,3.887 321.501,3.941 C320.944,4.079 320.576,4.308 320.398,4.628 C320.219,4.947 320.13,5.547 320.13,6.425 L320.13,7.905 L320.103,8.811" id="Fill-16" fill="#FFFFFF"></path>
            <path d="M332.681,19.479 C332.681,20.541 332.768,21.191 332.942,21.43 C333.115,21.667 333.614,21.828 334.436,21.91 C334.72,21.937 334.862,22.031 334.862,22.191 C334.862,22.406 334.702,22.514 334.38,22.514 C334.28,22.514 334.042,22.49 333.666,22.445 C333.437,22.417 333.102,22.39 332.663,22.362 L331.577,22.308 L330.504,22.338 C329.827,22.338 329.373,22.354 329.144,22.384 C328.878,22.425 328.704,22.445 328.622,22.445 C328.411,22.445 328.305,22.369 328.305,22.217 C328.305,22.039 328.457,21.927 328.758,21.883 C329.526,21.773 330.013,21.569 330.219,21.271 C330.424,20.974 330.528,20.335 330.528,19.354 L330.542,18.765 L330.542,14.671 C330.542,14.084 330.5,13.654 330.417,13.379 C330.335,13.104 330.134,12.715 329.814,12.212 L325.988,6.126 L325.521,5.37 C325.255,4.94 324.88,4.59 324.396,4.319 C323.912,4.05 323.431,3.914 322.957,3.914 C322.691,3.914 322.558,3.832 322.558,3.667 C322.558,3.467 322.7,3.365 322.983,3.365 C323.21,3.365 323.444,3.381 323.68,3.411 C324.274,3.481 324.894,3.517 325.542,3.517 C326.883,3.517 327.742,3.496 328.116,3.455 C328.517,3.414 328.759,3.394 328.841,3.394 C329.106,3.394 329.238,3.482 329.238,3.661 C329.238,3.795 329.133,3.894 328.922,3.955 C328.31,4.139 328.003,4.45 328.003,4.89 C328.003,5.128 328.202,5.567 328.597,6.209 L328.983,6.868 L331.867,11.402 L332.046,11.677 C332.128,11.806 332.211,11.87 332.294,11.87 C332.395,11.87 332.491,11.806 332.582,11.678 L332.718,11.473 L334.702,8.46 L335.372,7.393 C336.01,6.379 336.33,5.699 336.33,5.353 C336.33,4.74 335.753,4.298 334.601,4.024 C334.373,3.969 334.262,3.864 334.272,3.709 C334.281,3.553 334.386,3.476 334.588,3.476 C334.726,3.476 334.968,3.5 335.317,3.55 C335.583,3.592 336.224,3.612 337.242,3.612 C338.176,3.612 338.772,3.599 339.029,3.571 C339.377,3.535 339.62,3.512 339.757,3.503 C340.004,3.484 340.128,3.565 340.128,3.744 C340.128,3.887 340.014,3.994 339.786,4.065 C338.972,4.331 338.295,4.844 337.755,5.604 L336.865,6.937 L333.531,11.909 L333.202,12.376 C332.854,12.871 332.681,13.324 332.681,13.736 L332.681,19.479" id="Fill-17" fill="#FFFFFF"></path>
            <path d="M86.538,36.038 L92.772,36.038 C93.082,36.038 93.279,36.01 93.364,35.953 C93.448,35.897 93.491,35.77 93.491,35.571 L93.491,31.956 C93.491,31.227 93.397,30.712 93.211,30.408 C93.024,30.104 92.681,29.895 92.181,29.782 C91.969,29.741 91.867,29.659 91.874,29.535 C91.881,29.418 91.969,29.359 92.138,29.359 C92.286,29.359 92.525,29.377 92.857,29.412 C93.322,29.462 93.814,29.486 94.336,29.486 C95.09,29.486 95.618,29.466 95.921,29.423 C96.111,29.396 96.242,29.381 96.312,29.381 C96.481,29.381 96.566,29.449 96.566,29.587 C96.566,29.695 96.481,29.768 96.312,29.804 L95.879,29.898 C95.661,29.94 95.478,30.098 95.33,30.369 C95.182,30.64 95.107,30.952 95.107,31.304 L95.107,41.523 C95.107,42.276 95.213,42.797 95.424,43.086 C95.636,43.375 96.041,43.551 96.64,43.614 C96.858,43.642 96.971,43.711 96.978,43.821 C96.992,43.986 96.893,44.068 96.682,44.068 C96.541,44.068 96.358,44.051 96.132,44.016 C95.963,43.987 95.611,43.974 95.076,43.974 L94.294,43.963 L93.501,43.984 C93.374,43.984 93.206,43.995 92.994,44.016 C92.557,44.051 92.314,44.068 92.265,44.068 C92.089,44.076 92.004,44.007 92.011,43.862 C92.019,43.738 92.138,43.659 92.371,43.625 C93.11,43.498 93.48,42.895 93.48,41.815 L93.491,41.402 L93.491,37.519 C93.491,37.187 93.459,36.993 93.395,36.937 C93.332,36.88 93.121,36.852 92.762,36.852 L86.538,36.852 C86.136,36.852 85.886,36.893 85.788,36.974 C85.689,37.055 85.64,37.261 85.64,37.592 L85.64,41.47 C85.64,42.202 85.756,42.716 85.988,43.012 C86.221,43.308 86.654,43.491 87.288,43.562 C87.548,43.59 87.683,43.679 87.689,43.831 C87.696,43.976 87.594,44.048 87.383,44.048 C87.291,44.048 87.119,44.031 86.865,44 C86.675,43.968 86.252,43.951 85.597,43.951 L84.709,43.942 L84.012,43.966 C83.836,43.966 83.614,43.978 83.347,44.001 C82.98,44.032 82.758,44.048 82.681,44.048 C82.504,44.048 82.416,43.982 82.416,43.852 C82.416,43.728 82.508,43.646 82.691,43.604 L83.22,43.477 C83.53,43.406 83.741,43.173 83.853,42.778 C83.966,42.383 84.023,41.69 84.023,40.702 L84.023,31.614 C84.023,31.001 83.907,30.556 83.674,30.28 C83.441,30.005 83.026,29.821 82.427,29.729 C82.223,29.702 82.121,29.627 82.121,29.503 C82.121,29.358 82.212,29.289 82.396,29.296 C82.529,29.304 82.741,29.324 83.029,29.359 C83.579,29.423 84.224,29.455 84.963,29.455 C85.463,29.455 85.932,29.427 86.369,29.37 C86.559,29.342 86.706,29.328 86.813,29.328 C87.017,29.328 87.119,29.4 87.119,29.545 C87.119,29.655 87.024,29.734 86.833,29.782 C86.361,29.902 86.044,30.074 85.882,30.297 C85.72,30.52 85.64,30.892 85.64,31.415 L85.64,35.2 C85.64,35.604 85.68,35.844 85.761,35.922 C85.842,35.999 86.101,36.038 86.538,36.038" id="Fill-18" fill="#FFFFFF"></path>
            <path d="M104.924,31.301 C103.452,31.301 102.283,31.796 101.417,32.787 C100.55,33.777 100.117,35.111 100.117,36.789 C100.117,38.707 100.671,40.325 101.778,41.642 C102.886,42.958 104.245,43.616 105.857,43.616 C107.329,43.616 108.544,43.08 109.502,42.007 C110.46,40.935 110.94,39.574 110.94,37.929 C110.94,36.036 110.366,34.458 109.217,33.195 C108.068,31.933 106.637,31.301 104.924,31.301 L104.924,31.301 Z M105.538,30.683 C107.522,30.683 109.15,31.296 110.421,32.522 C111.692,33.748 112.328,35.317 112.328,37.231 C112.328,39.258 111.688,40.921 110.407,42.22 C109.126,43.519 107.488,44.168 105.49,44.168 C103.442,44.168 101.786,43.547 100.521,42.306 C99.256,41.063 98.624,39.436 98.624,37.421 C98.624,36.546 98.79,35.68 99.123,34.821 C99.456,33.963 99.905,33.245 100.469,32.669 C101.065,32.061 101.819,31.578 102.732,31.22 C103.646,30.861 104.581,30.683 105.538,30.683 L105.538,30.683 Z" id="Fill-19" fill="#FFFFFF"></path>
            <path d="M122.999,31.929 L120.326,31.929 C120.047,31.929 119.871,31.967 119.798,32.043 C119.725,32.119 119.689,32.307 119.689,32.605 L119.689,41.94 L119.698,42.312 C119.73,43.055 120.146,43.496 120.944,43.636 C121.166,43.673 121.277,43.744 121.277,43.85 C121.277,43.985 121.188,44.054 121.01,44.054 C120.934,44.054 120.778,44.035 120.543,43.997 C120.422,43.978 120.137,43.969 119.686,43.969 L118.99,43.959 L118.247,43.969 C117.979,43.969 117.754,43.978 117.57,43.997 C117.208,44.035 116.995,44.054 116.932,44.054 C116.741,44.054 116.646,43.986 116.646,43.85 C116.646,43.751 116.75,43.688 116.959,43.664 C117.448,43.601 117.777,43.466 117.949,43.26 C118.12,43.053 118.205,42.683 118.205,42.149 L118.205,32.71 L118.196,32.462 C118.196,32.233 118.163,32.087 118.096,32.023 C118.029,31.96 117.875,31.929 117.635,31.929 L115.114,31.929 C114.601,31.929 114.229,32.031 113.997,32.237 C113.766,32.443 113.586,32.832 113.459,33.402 C113.403,33.649 113.317,33.771 113.203,33.764 C113.089,33.758 113.032,33.673 113.032,33.508 C113.032,33.375 113.07,33.132 113.146,32.778 C113.241,32.323 113.289,31.947 113.289,31.65 C113.289,31.359 113.322,31.169 113.388,31.077 C113.455,30.985 113.596,30.94 113.812,30.94 L124.054,30.94 C124.402,30.94 124.613,30.978 124.687,31.053 C124.759,31.129 124.796,31.354 124.796,31.726 C124.796,32.099 124.812,32.37 124.843,32.54 C124.875,32.755 124.894,32.91 124.9,33.004 C124.907,33.194 124.84,33.295 124.701,33.308 C124.586,33.314 124.511,33.216 124.473,33.013 C124.39,32.563 124.257,32.269 124.073,32.133 C123.889,31.997 123.531,31.929 122.999,31.929" id="Fill-20" fill="#FFFFFF"></path>
            <path d="M128.79,32.426 L128.79,36.263 C128.79,36.556 128.817,36.732 128.871,36.793 C128.925,36.854 129.088,36.884 129.361,36.884 L130.826,36.884 C131.491,36.884 132.018,36.846 132.404,36.77 C132.747,36.699 132.968,36.607 133.07,36.493 C133.171,36.379 133.263,36.113 133.346,35.694 C133.378,35.536 133.459,35.46 133.589,35.467 C133.712,35.473 133.773,35.559 133.773,35.723 C133.773,35.767 133.77,35.836 133.763,35.931 C133.707,36.545 133.679,37.105 133.679,37.61 C133.679,37.996 133.698,38.379 133.736,38.758 C133.748,38.885 133.754,38.977 133.754,39.033 C133.754,39.191 133.693,39.271 133.57,39.271 C133.434,39.271 133.353,39.201 133.327,39.062 L133.27,38.795 C133.194,38.37 133.042,38.082 132.814,37.93 C132.586,37.777 132.201,37.701 131.656,37.701 L129.559,37.701 C129.249,37.701 129.042,37.733 128.938,37.797 C128.833,37.86 128.781,37.987 128.781,38.178 L128.79,38.492 L128.79,41.998 C128.79,42.538 128.887,42.874 129.08,43.008 C129.273,43.141 129.762,43.208 130.547,43.208 C133.035,43.208 134.634,42.647 135.343,41.524 C135.414,41.417 135.486,41.359 135.557,41.354 C135.674,41.347 135.733,41.429 135.733,41.6 C135.733,42.01 135.501,42.5 135.039,43.068 C134.48,43.751 133.777,44.092 132.927,44.092 C132.743,44.092 132.496,44.079 132.186,44.054 C130.974,43.94 129.973,43.883 129.18,43.883 C128.071,43.883 127.288,43.921 126.831,43.997 C126.59,44.041 126.425,44.063 126.336,44.063 C126.134,44.063 126.032,43.995 126.032,43.859 C126.032,43.754 126.115,43.679 126.28,43.636 L126.641,43.531 C127.098,43.404 127.326,42.959 127.326,42.197 L127.335,41.578 L127.335,33.53 C127.335,32.622 127.235,32.011 127.036,31.696 C126.836,31.382 126.447,31.225 125.871,31.225 C125.687,31.225 125.595,31.166 125.595,31.048 C125.595,30.874 125.737,30.787 126.023,30.787 C126.181,30.787 126.394,30.803 126.66,30.835 C127.566,30.936 128.657,30.987 129.932,30.987 C130.705,30.987 131.39,30.975 131.986,30.949 L133.336,30.883 C133.71,30.87 133.938,30.857 134.021,30.845 C134.192,30.819 134.319,30.807 134.401,30.807 C134.61,30.807 134.715,30.898 134.715,31.081 C134.715,31.138 134.706,31.211 134.687,31.299 C134.667,31.388 134.642,31.641 134.61,32.058 L134.572,32.616 C134.54,32.982 134.508,33.212 134.476,33.304 C134.443,33.395 134.372,33.444 134.262,33.45 C134.139,33.456 134.078,33.361 134.078,33.165 L134.078,32.918 C134.078,32.715 134.04,32.522 133.964,32.338 C133.844,32.052 133.6,31.862 133.233,31.767 C132.866,31.672 132.192,31.624 131.211,31.624 L129.721,31.624 C129.328,31.624 129.075,31.674 128.961,31.772 C128.847,31.871 128.79,32.089 128.79,32.426" id="Fill-21" fill="#FFFFFF"></path>
            <g id="Group-25" transform="translate(137.000000, 29.000000)">
                <mask id="mask-2" fill="white">
                    <use xlink:href="#path-1"></use>
                </mask>
                <g id="Clip-23"></g>
                <path d="M3.174,12.359 L3.184,12.693 C3.184,13.455 3.256,13.906 3.403,14.046 C3.548,14.186 4.025,14.255 4.831,14.255 C6.019,14.255 7.049,14.114 7.922,13.832 C8.795,13.55 9.352,13.178 9.593,12.715 C9.682,12.543 9.771,12.458 9.86,12.458 C9.961,12.458 10.009,12.521 10.002,12.647 C9.977,13.065 9.771,13.523 9.384,14.022 C8.838,14.71 7.952,15.054 6.728,15.054 C6.524,15.054 6.29,15.045 6.023,15.025 L4.995,14.949 C4.392,14.905 3.754,14.883 3.082,14.883 C2.301,14.883 1.647,14.921 1.121,14.997 C0.898,15.028 0.721,15.048 0.587,15.054 C0.429,15.061 0.35,15.005 0.35,14.887 C0.35,14.788 0.436,14.714 0.608,14.664 C1.048,14.531 1.344,14.336 1.494,14.078 C1.644,13.821 1.719,13.388 1.719,12.778 L1.729,12.34 L1.729,3.825 C1.729,2.98 1.386,2.488 0.701,2.349 L0.273,2.263 C0.121,2.232 0.045,2.17 0.045,2.077 C0.045,1.935 0.153,1.863 0.368,1.863 C0.513,1.863 0.712,1.876 0.966,1.901 C1.396,1.94 1.88,1.958 2.418,1.958 C3,1.958 3.528,1.942 4.003,1.911 C4.243,1.898 4.379,1.892 4.411,1.892 C4.563,1.892 4.639,1.938 4.639,2.031 C4.639,2.168 4.547,2.258 4.363,2.301 L4.03,2.377 C3.459,2.517 3.174,3.085 3.174,4.082 L3.174,12.359" id="Fill-22" fill="#FFFFFF" mask="url(#mask-2)"></path>
                <path d="M18.018,14.063 L18.018,3.341 C18.018,2.51 17.938,1.932 17.78,1.607 C17.621,1.283 17.316,1.071 16.866,0.973 L16.231,0.835 C16.021,0.794 15.915,0.7 15.915,0.556 C15.915,0.397 16.031,0.321 16.263,0.328 C16.404,0.335 16.658,0.359 17.024,0.402 C17.39,0.444 17.989,0.466 18.82,0.466 C19.532,0.466 19.976,0.455 20.152,0.434 C20.497,0.385 20.698,0.359 20.754,0.359 C20.888,0.359 20.955,0.425 20.955,0.556 C20.955,0.687 20.856,0.776 20.659,0.824 C20.265,0.924 19.997,1.08 19.856,1.295 C19.715,1.51 19.645,1.878 19.645,2.399 L19.645,3.276 L19.634,3.72 L19.634,13.008 L19.645,13.516 L19.507,14.91 C19.26,16.065 18.764,17.036 18.02,17.821 C17.274,18.607 16.479,19 15.631,19 C15.391,19 15.185,18.945 15.012,18.837 C14.839,18.729 14.752,18.601 14.752,18.453 C14.752,18.391 14.767,18.306 14.795,18.201 C14.816,18.145 14.849,18.016 14.892,17.813 C14.985,17.371 15.121,17.15 15.3,17.15 C15.386,17.15 15.509,17.246 15.67,17.436 C15.951,17.76 16.26,17.922 16.597,17.922 C17.011,17.922 17.356,17.654 17.633,17.118 C17.911,16.583 18.049,15.92 18.049,15.131 L18.018,14.063" id="Fill-24" fill="#FFFFFF" mask="url(#mask-2)"></path>
            </g>
            <path d="M162.856,32.426 L162.856,36.263 C162.856,36.556 162.883,36.732 162.937,36.793 C162.991,36.854 163.154,36.884 163.427,36.884 L164.892,36.884 C165.557,36.884 166.083,36.846 166.47,36.77 C166.813,36.699 167.034,36.607 167.136,36.493 C167.237,36.379 167.329,36.113 167.412,35.694 C167.444,35.536 167.525,35.46 167.655,35.467 C167.778,35.473 167.839,35.559 167.839,35.723 C167.839,35.767 167.836,35.836 167.829,35.931 C167.772,36.545 167.745,37.105 167.745,37.61 C167.745,37.996 167.764,38.379 167.802,38.758 C167.814,38.885 167.82,38.977 167.82,39.033 C167.82,39.191 167.759,39.271 167.636,39.271 C167.5,39.271 167.418,39.201 167.393,39.062 L167.335,38.795 C167.26,38.37 167.108,38.082 166.88,37.93 C166.652,37.777 166.267,37.701 165.722,37.701 L163.625,37.701 C163.315,37.701 163.107,37.733 163.003,37.797 C162.899,37.86 162.847,37.987 162.847,38.178 L162.856,38.492 L162.856,41.998 C162.856,42.538 162.953,42.874 163.146,43.008 C163.339,43.141 163.828,43.208 164.613,43.208 C167.101,43.208 168.7,42.647 169.409,41.524 C169.48,41.417 169.552,41.359 169.623,41.354 C169.74,41.347 169.799,41.429 169.799,41.6 C169.799,42.01 169.567,42.5 169.104,43.068 C168.546,43.751 167.843,44.092 166.993,44.092 C166.809,44.092 166.562,44.079 166.251,44.054 C165.04,43.94 164.039,43.883 163.246,43.883 C162.137,43.883 161.354,43.921 160.897,43.997 C160.656,44.041 160.491,44.063 160.402,44.063 C160.2,44.063 160.098,43.995 160.098,43.859 C160.098,43.754 160.181,43.679 160.346,43.636 L160.707,43.531 C161.164,43.404 161.392,42.959 161.392,42.197 L161.401,41.578 L161.401,33.53 C161.401,32.622 161.301,32.011 161.102,31.696 C160.902,31.382 160.513,31.225 159.937,31.225 C159.752,31.225 159.661,31.166 159.661,31.048 C159.661,30.874 159.803,30.787 160.089,30.787 C160.247,30.787 160.459,30.803 160.726,30.835 C161.632,30.936 162.723,30.987 163.998,30.987 C164.771,30.987 165.456,30.975 166.052,30.949 L167.402,30.883 C167.776,30.87 168.004,30.857 168.087,30.845 C168.258,30.819 168.385,30.807 168.467,30.807 C168.676,30.807 168.781,30.898 168.781,31.081 C168.781,31.138 168.771,31.211 168.752,31.299 C168.733,31.388 168.708,31.641 168.676,32.058 L168.638,32.616 C168.606,32.982 168.574,33.212 168.542,33.304 C168.509,33.395 168.438,33.444 168.328,33.45 C168.205,33.456 168.144,33.361 168.144,33.165 L168.144,32.918 C168.144,32.715 168.106,32.522 168.03,32.338 C167.91,32.052 167.666,31.862 167.299,31.767 C166.932,31.672 166.258,31.624 165.277,31.624 L163.787,31.624 C163.394,31.624 163.141,31.674 163.027,31.772 C162.913,31.871 162.856,32.089 162.856,32.426" id="Fill-26" fill="#FFFFFF"></path>
            <path d="M174.917,37.197 L175.994,37.197 C176.826,37.197 177.48,36.968 177.957,36.51 C178.434,36.052 178.672,35.426 178.672,34.631 C178.672,33.708 178.348,32.949 177.7,32.355 C177.051,31.76 176.226,31.463 175.222,31.463 C174.847,31.463 174.588,31.524 174.445,31.648 C174.302,31.772 174.23,31.997 174.23,32.321 L174.24,32.636 L174.24,36.51 C174.24,36.81 174.28,36.998 174.359,37.078 C174.438,37.157 174.624,37.197 174.917,37.197 L174.917,37.197 Z M177.711,37.403 L180.336,41.273 L180.64,41.729 C181.452,42.918 182.2,43.534 182.885,43.578 L183.189,43.598 C183.303,43.605 183.357,43.649 183.351,43.733 C183.344,43.83 183.204,43.918 182.928,43.995 C182.652,44.072 182.339,44.111 181.991,44.111 C181.42,44.111 180.908,43.954 180.455,43.641 C180.001,43.326 179.541,42.815 179.071,42.105 L176.703,38.49 L176.57,38.281 C176.418,38.022 176.17,37.892 175.828,37.892 L174.563,37.892 L174.354,37.93 C174.278,37.975 174.24,38.076 174.24,38.235 L174.24,41.212 L174.25,41.594 C174.25,42.141 174.276,42.515 174.331,42.715 C174.384,42.915 174.513,43.095 174.715,43.254 C174.988,43.47 175.41,43.607 175.98,43.664 C176.208,43.688 176.326,43.76 176.332,43.878 C176.345,44.002 176.24,44.063 176.019,44.063 C175.93,44.063 175.743,44.05 175.458,44.022 C175.197,43.993 174.795,43.979 174.25,43.979 L173.336,43.969 L172.842,43.978 C172.626,43.978 172.367,43.994 172.062,44.025 C171.815,44.051 171.644,44.063 171.549,44.063 C171.39,44.063 171.311,43.999 171.311,43.869 C171.311,43.776 171.39,43.714 171.549,43.684 C172.056,43.588 172.389,43.357 172.547,42.992 C172.706,42.628 172.785,41.908 172.785,40.835 L172.785,33.996 L172.766,33.006 C172.766,32.016 172.42,31.463 171.729,31.349 L171.282,31.282 C171.079,31.245 170.978,31.17 170.978,31.059 C170.978,30.929 171.086,30.863 171.301,30.863 C171.352,30.863 171.574,30.876 171.967,30.901 C172.195,30.921 172.478,30.93 172.813,30.93 C173.105,30.93 173.603,30.908 174.307,30.863 C174.814,30.832 175.261,30.815 175.647,30.815 C177.105,30.815 178.206,31.091 178.948,31.64 C179.689,32.189 180.06,33.006 180.06,34.091 C180.06,35.519 179.277,36.623 177.711,37.403 L177.711,37.403 Z" id="Fill-27" fill="#FFFFFF"></path>
            <path d="M194.392,38.438 L194.392,33.515 C194.392,32.723 194.278,32.148 194.05,31.79 C193.822,31.433 193.435,31.227 192.89,31.177 C192.706,31.158 192.614,31.091 192.614,30.973 C192.614,30.837 192.677,30.772 192.804,30.777 C192.943,30.784 193.145,30.81 193.411,30.854 C193.651,30.892 193.938,30.911 194.274,30.911 C194.982,30.911 195.418,30.901 195.583,30.883 C195.804,30.863 195.943,30.854 196,30.854 C196.12,30.854 196.18,30.909 196.18,31.021 C196.18,31.114 196.114,31.188 195.98,31.244 C195.594,31.402 195.343,31.624 195.229,31.909 C195.115,32.194 195.058,32.733 195.058,33.526 L195.058,38.233 C195.058,39.965 194.712,41.296 194.021,42.229 C193.584,42.817 192.958,43.288 192.143,43.641 C191.328,43.992 190.458,44.168 189.533,44.168 C188.455,44.168 187.484,43.959 186.623,43.54 C185.76,43.122 185.129,42.555 184.73,41.838 C184.28,41.014 184.055,39.939 184.055,38.614 L184.055,33.783 L184.036,33.241 C184.036,32.563 183.942,32.095 183.755,31.838 C183.568,31.581 183.192,31.412 182.628,31.329 C182.457,31.305 182.372,31.239 182.372,31.134 C182.372,30.985 182.492,30.911 182.733,30.911 C182.891,30.911 183.11,30.917 183.389,30.93 C183.681,30.949 183.893,30.958 184.026,30.958 L184.758,30.949 L185.481,30.949 C185.557,30.949 185.735,30.936 186.014,30.911 C186.248,30.892 186.41,30.883 186.499,30.883 C186.645,30.883 186.718,30.932 186.718,31.031 C186.718,31.148 186.616,31.226 186.413,31.263 C186.045,31.345 185.8,31.505 185.676,31.743 C185.553,31.98 185.491,32.406 185.491,33.021 L185.51,33.648 L185.51,38.438 C185.51,40.072 185.764,41.237 186.271,41.935 C186.988,42.923 188.191,43.417 189.879,43.417 C191.39,43.417 192.52,43.004 193.269,42.177 C194.018,41.35 194.392,40.104 194.392,38.438" id="Fill-28" fill="#FFFFFF"></path>
            <path d="M202.039,30.683 C202.717,30.683 203.291,30.781 203.76,30.978 L204.416,31.253 C204.473,31.278 204.53,31.291 204.587,31.291 C204.664,31.291 204.739,31.26 204.815,31.196 L204.949,31.082 C204.968,31.057 205.002,31.044 205.053,31.044 C205.212,31.038 205.291,31.193 205.291,31.51 C205.291,31.618 205.332,31.938 205.415,32.471 L205.567,33.45 C205.599,33.659 205.614,33.789 205.614,33.84 C205.614,34.037 205.546,34.135 205.411,34.135 C205.308,34.135 205.204,33.982 205.101,33.677 C204.873,32.99 204.41,32.424 203.712,31.979 C203.014,31.533 202.234,31.311 201.375,31.311 C200.692,31.311 200.122,31.512 199.664,31.915 C199.205,32.318 198.976,32.821 198.976,33.424 C198.976,33.957 199.125,34.417 199.423,34.805 C199.682,35.135 199.965,35.376 200.272,35.528 C200.58,35.681 201.335,35.956 202.538,36.357 C204.88,37.123 206.052,38.381 206.052,40.129 C206.052,41.315 205.621,42.283 204.758,43.037 C203.896,43.791 202.79,44.168 201.439,44.168 C200.951,44.168 200.414,44.099 199.828,43.959 C199.241,43.819 198.812,43.658 198.539,43.474 C198.425,43.398 198.349,43.317 198.311,43.232 C198.272,43.146 198.215,42.926 198.139,42.57 C198.126,42.52 198.047,42.231 197.901,41.705 C197.737,41.135 197.654,40.729 197.654,40.487 C197.654,40.298 197.719,40.206 197.848,40.212 C197.964,40.219 198.068,40.374 198.158,40.68 C198.386,41.468 198.866,42.129 199.6,42.663 C200.333,43.197 201.13,43.465 201.99,43.465 C202.862,43.465 203.601,43.207 204.205,42.693 C204.809,42.18 205.11,41.554 205.11,40.818 C205.11,40.113 204.832,39.521 204.274,39.038 C203.989,38.79 203.167,38.438 201.805,37.982 C200.399,37.506 199.404,36.98 198.818,36.404 C198.232,35.827 197.939,35.08 197.939,34.161 C197.939,33.135 198.322,32.299 199.085,31.652 C199.85,31.006 200.834,30.683 202.039,30.683" id="Fill-29" fill="#FFFFFF"></path>
            <path d="M214.478,37.426 L212.984,33.659 L212.909,33.46 C212.833,33.257 212.75,33.152 212.661,33.146 C212.617,33.14 212.566,33.2 212.509,33.326 L210.655,37.444 C210.572,37.622 210.531,37.739 210.531,37.796 C210.531,37.961 210.677,38.044 210.968,38.044 L211.225,38.053 L214.097,38.053 C214.414,38.053 214.573,37.974 214.573,37.815 C214.573,37.772 214.557,37.698 214.525,37.597 L214.478,37.426 L214.478,37.426 Z M214.364,38.957 L210.921,38.957 C210.452,38.957 210.16,38.995 210.046,39.071 C209.932,39.148 209.78,39.401 209.589,39.833 L208.966,41.234 C208.684,41.876 208.543,42.353 208.543,42.663 C208.543,42.962 208.618,43.178 208.767,43.312 C208.916,43.445 209.209,43.56 209.646,43.654 C209.837,43.691 209.935,43.766 209.941,43.877 C209.948,43.982 209.859,44.035 209.676,44.035 C209.606,44.035 209.499,44.031 209.353,44.024 L208.442,43.971 C208.139,43.957 207.788,43.949 207.39,43.949 C207.206,43.949 207.063,43.954 206.963,43.963 C206.64,43.998 206.463,44.016 206.432,44.016 C206.261,44.016 206.175,43.957 206.175,43.841 C206.175,43.736 206.229,43.668 206.337,43.636 L206.689,43.531 C206.815,43.493 206.987,43.339 207.202,43.069 C207.418,42.8 207.595,42.519 207.735,42.227 L208.011,41.599 L212.899,30.74 C212.981,30.55 213.073,30.454 213.175,30.454 C213.276,30.454 213.362,30.547 213.432,30.73 L217.521,41.207 L217.73,41.722 C218.028,42.489 218.275,42.968 218.472,43.154 C218.668,43.342 219.068,43.489 219.67,43.598 C219.867,43.635 219.962,43.712 219.956,43.83 C219.949,43.935 219.86,43.987 219.689,43.987 C219.632,43.987 219.512,43.982 219.328,43.969 C218.998,43.937 218.412,43.921 217.568,43.921 C216.687,43.921 216.136,43.94 215.914,43.978 C215.781,44.003 215.682,44.016 215.619,44.016 C215.454,44.016 215.372,43.951 215.372,43.821 C215.372,43.722 215.451,43.657 215.609,43.626 L215.904,43.56 C216.221,43.496 216.38,43.28 216.38,42.911 C216.38,42.574 216.186,41.904 215.8,40.9 L215.324,39.643 C215.191,39.293 215.086,39.092 215.01,39.037 C214.934,38.983 214.719,38.957 214.364,38.957 L214.364,38.957 Z" id="Fill-30" fill="#FFFFFF"></path>
            <path d="M223.474,41.359 L223.484,41.693 C223.484,42.455 223.557,42.906 223.703,43.046 C223.849,43.186 224.325,43.255 225.131,43.255 C226.319,43.255 227.349,43.114 228.222,42.832 C229.095,42.55 229.652,42.178 229.894,41.715 C229.982,41.543 230.071,41.458 230.16,41.458 C230.261,41.458 230.309,41.521 230.303,41.647 C230.277,42.065 230.071,42.523 229.684,43.022 C229.138,43.71 228.252,44.054 227.028,44.054 C226.825,44.054 226.59,44.045 226.324,44.025 L225.295,43.949 C224.692,43.905 224.055,43.883 223.382,43.883 C222.601,43.883 221.948,43.921 221.421,43.997 C221.199,44.028 221.021,44.048 220.888,44.054 C220.729,44.061 220.65,44.005 220.65,43.887 C220.65,43.788 220.736,43.714 220.908,43.664 C221.349,43.531 221.644,43.336 221.794,43.078 C221.944,42.821 222.02,42.388 222.02,41.778 L222.029,41.34 L222.029,32.825 C222.029,31.98 221.687,31.488 221.001,31.349 L220.574,31.263 C220.421,31.232 220.346,31.17 220.346,31.077 C220.346,30.935 220.453,30.863 220.668,30.863 C220.813,30.863 221.013,30.876 221.266,30.901 C221.696,30.94 222.18,30.958 222.718,30.958 C223.3,30.958 223.829,30.942 224.303,30.911 C224.543,30.898 224.68,30.892 224.711,30.892 C224.863,30.892 224.939,30.938 224.939,31.031 C224.939,31.168 224.847,31.258 224.663,31.301 L224.33,31.377 C223.76,31.517 223.474,32.085 223.474,33.082 L223.474,41.359" id="Fill-31" fill="#FFFFFF"></path>
            <path d="M234.078,32.426 L234.078,36.263 C234.078,36.556 234.105,36.732 234.159,36.793 C234.213,36.854 234.376,36.884 234.649,36.884 L236.114,36.884 C236.779,36.884 237.306,36.846 237.692,36.77 C238.035,36.699 238.256,36.607 238.358,36.493 C238.459,36.379 238.551,36.113 238.634,35.694 C238.666,35.536 238.747,35.46 238.877,35.467 C239,35.473 239.062,35.559 239.062,35.723 C239.062,35.767 239.058,35.836 239.051,35.931 C238.995,36.545 238.967,37.105 238.967,37.61 C238.967,37.996 238.986,38.379 239.024,38.758 C239.036,38.885 239.042,38.977 239.042,39.033 C239.042,39.191 238.981,39.271 238.858,39.271 C238.722,39.271 238.641,39.201 238.615,39.062 L238.558,38.795 C238.482,38.37 238.33,38.082 238.102,37.93 C237.875,37.777 237.489,37.701 236.944,37.701 L234.847,37.701 C234.537,37.701 234.33,37.733 234.226,37.797 C234.121,37.86 234.069,37.987 234.069,38.178 L234.078,38.492 L234.078,41.998 C234.078,42.538 234.175,42.874 234.368,43.008 C234.561,43.141 235.05,43.208 235.835,43.208 C238.323,43.208 239.922,42.647 240.631,41.524 C240.702,41.417 240.774,41.359 240.845,41.354 C240.962,41.347 241.021,41.429 241.021,41.6 C241.021,42.01 240.79,42.5 240.327,43.068 C239.769,43.751 239.065,44.092 238.215,44.092 C238.031,44.092 237.784,44.079 237.474,44.054 C236.262,43.94 235.261,43.883 234.468,43.883 C233.359,43.883 232.576,43.921 232.119,43.997 C231.878,44.041 231.713,44.063 231.625,44.063 C231.422,44.063 231.32,43.995 231.32,43.859 C231.32,43.754 231.403,43.679 231.568,43.636 L231.929,43.531 C232.386,43.404 232.614,42.959 232.614,42.197 L232.624,41.578 L232.624,33.53 C232.624,32.622 232.523,32.011 232.324,31.696 C232.124,31.382 231.735,31.225 231.159,31.225 C230.975,31.225 230.883,31.166 230.883,31.048 C230.883,30.874 231.025,30.787 231.311,30.787 C231.469,30.787 231.682,30.803 231.948,30.835 C232.854,30.936 233.945,30.987 235.22,30.987 C235.993,30.987 236.678,30.975 237.274,30.949 L238.624,30.883 C238.998,30.87 239.227,30.857 239.309,30.845 C239.48,30.819 239.607,30.807 239.689,30.807 C239.898,30.807 240.003,30.898 240.003,31.081 C240.003,31.138 239.994,31.211 239.975,31.299 C239.956,31.388 239.93,31.641 239.898,32.058 L239.86,32.616 C239.828,32.982 239.796,33.212 239.764,33.304 C239.731,33.395 239.66,33.444 239.55,33.45 C239.427,33.456 239.366,33.361 239.366,33.165 L239.366,32.918 C239.366,32.715 239.328,32.522 239.252,32.338 C239.132,32.052 238.888,31.862 238.521,31.767 C238.154,31.672 237.48,31.624 236.499,31.624 L235.009,31.624 C234.616,31.624 234.363,31.674 234.249,31.772 C234.135,31.871 234.078,32.089 234.078,32.426" id="Fill-32" fill="#FFFFFF"></path>
            <path d="M254.154,34.344 C253.615,35.288 253.255,35.943 253.078,36.311 L252.23,38.125 L251.257,40.12 C251.207,40.234 250.939,40.83 250.457,41.906 C250.259,42.35 250.087,42.714 249.943,42.999 C249.859,43.17 249.802,43.291 249.771,43.36 C249.644,43.658 249.509,43.807 249.367,43.807 C249.214,43.807 249.072,43.651 248.933,43.341 C248.908,43.284 248.82,43.11 248.667,42.818 L248.476,42.42 L244.901,34.705 L244.682,39.413 C244.663,39.8 244.654,40.573 244.654,41.733 C244.654,42.85 245.047,43.468 245.833,43.588 C246.22,43.65 246.413,43.743 246.413,43.868 C246.413,44.011 246.321,44.083 246.138,44.083 C246.018,44.083 245.901,44.076 245.787,44.063 C245.079,44 244.531,43.969 244.146,43.969 C243.684,43.969 243.241,43.997 242.817,44.054 C242.69,44.073 242.592,44.083 242.523,44.083 C242.333,44.083 242.238,44.015 242.238,43.878 C242.238,43.773 242.314,43.705 242.466,43.674 C242.929,43.565 243.252,43.351 243.437,43.026 C243.62,42.703 243.731,42.15 243.77,41.37 L243.902,38.61 C243.998,36.611 244.045,35.349 244.045,34.822 C244.045,33.693 243.896,32.857 243.598,32.314 C243.3,31.772 242.802,31.438 242.105,31.311 C241.915,31.279 241.82,31.202 241.82,31.078 C241.82,30.941 241.899,30.873 242.057,30.873 C242.114,30.873 242.219,30.879 242.371,30.892 C242.459,30.904 242.675,30.911 243.017,30.911 C243.537,30.911 243.866,30.904 244.006,30.892 C244.151,30.873 244.269,30.863 244.357,30.863 C244.63,30.863 244.858,31.064 245.042,31.463 L245.146,31.682 L249.111,40.231 L249.595,41.211 C249.664,41.375 249.714,41.458 249.748,41.458 C249.785,41.458 249.832,41.398 249.89,41.277 L250.003,41.02 L250.089,40.829 L254.554,31.254 C254.65,31.051 254.72,30.925 254.769,30.878 C254.816,30.83 254.9,30.807 255.021,30.807 C255.072,30.807 255.21,30.819 255.439,30.845 C255.521,30.851 255.626,30.854 255.753,30.854 C256.152,30.854 256.472,30.841 256.712,30.815 C256.828,30.81 256.919,30.803 256.988,30.797 C257.115,30.791 257.179,30.852 257.179,30.982 C257.179,31.101 257.115,31.175 256.988,31.206 L256.58,31.311 C256.255,31.387 256.029,31.585 255.9,31.906 C255.769,32.227 255.705,32.752 255.705,33.482 L255.761,35.777 L255.943,40.949 L255.99,42.149 C255.99,42.633 256.08,42.979 256.255,43.188 C256.433,43.398 256.757,43.537 257.226,43.607 C257.562,43.656 257.73,43.74 257.73,43.858 C257.73,43.982 257.613,44.045 257.378,44.045 C257.31,44.045 257.23,44.041 257.142,44.035 L256.402,43.959 C256.156,43.934 255.89,43.921 255.605,43.921 C255.408,43.921 255.099,43.935 254.675,43.963 C254.017,43.998 253.636,44.016 253.537,44.016 C253.353,44.016 253.261,43.96 253.261,43.849 C253.261,43.75 253.339,43.679 253.498,43.636 C253.873,43.534 254.123,43.369 254.25,43.141 C254.376,42.912 254.439,42.512 254.439,41.941 L254.402,40.39 L254.154,34.344" id="Fill-33" fill="#FFFFFF"></path>
        </g>
    </g>
</svg>